<svg width="39" height="39" viewBox="0 0 39 39" fill="none" xmlns="http://www.w3.org/2000/svg">
<path d="M10.5729 18.821C10.3882 19.3415 10.6604 19.9132 11.1809 20.0979C11.7014 20.2826 12.2731 20.0103 12.4578 19.4899L11.5153 19.1555L10.5729 18.821ZM14.8197 9.84316L13.8773 9.50875L13.8773 9.50875L14.8197 9.84316ZM17.0483 7.91361L16.8522 6.93303L16.8522 6.93303L17.0483 7.91361ZM36.5016 4.02295L37.4857 4.20041C37.5444 3.87468 37.4382 3.54098 37.2019 3.30916C36.9657 3.07735 36.63 2.97746 36.3054 3.04237L36.5016 4.02295ZM32.9516 23.7094L31.9674 23.5319L31.9674 23.5319L32.9516 23.7094ZM30.9035 26.0297L30.6052 25.0752L30.6052 25.0752L30.9035 26.0297ZM21.0708 28.0547C20.5436 28.2194 20.2499 28.7803 20.4146 29.3074C20.5793 29.8346 21.1402 30.1284 21.6673 29.9637L21.3691 29.0092L21.0708 28.0547ZM36.8568 5.08198C37.2473 4.69145 37.2473 4.05829 36.8568 3.66776C36.4662 3.27724 35.8331 3.27724 35.4425 3.66776L36.1496 4.37487L36.8568 5.08198ZM26.9965 12.1138C26.606 12.5043 26.606 13.1375 26.9965 13.528C27.387 13.9185 28.0202 13.9185 28.4107 13.528L27.7036 12.8209L26.9965 12.1138ZM5.88465 26.1938L5.17755 26.9009L5.17755 26.9009L5.88465 26.1938ZM5.88465 23.3785L6.59176 24.0856L6.59176 24.0856L5.88465 23.3785ZM17.146 34.6399L17.8532 35.347L17.8532 35.347L17.146 34.6399ZM14.3307 34.6399L15.0378 33.9328L15.0378 33.9328L14.3307 34.6399ZM20.6652 28.3053L19.9581 29.0124L19.9581 29.0124L20.6652 28.3053ZM20.6652 31.1207L19.9581 30.4136L19.9581 30.4136L20.6652 31.1207ZM12.2192 19.8593L12.9263 19.1522L12.9263 19.1522L12.2192 19.8593ZM9.40384 19.8593L8.69673 19.1522L8.69673 19.1522L9.40384 19.8593ZM11.5153 19.1555L12.4578 19.4899L15.7621 10.1776L14.8197 9.84316L13.8773 9.50875L10.5729 18.821L11.5153 19.1555ZM17.0483 7.91361L17.2444 8.89419L36.6977 5.00353L36.5016 4.02295L36.3054 3.04237L16.8522 6.93303L17.0483 7.91361ZM36.5016 4.02295L35.5174 3.84548L31.9674 23.5319L32.9516 23.7094L33.9357 23.8869L37.4857 4.20041L36.5016 4.02295ZM30.9035 26.0297L30.6052 25.0752L21.0708 28.0547L21.3691 29.0092L21.6673 29.9637L31.2018 26.9841L30.9035 26.0297ZM32.9516 23.7094L31.9674 23.5319C31.8362 24.2599 31.3112 24.8546 30.6052 25.0752L30.9035 26.0297L31.2018 26.9841C32.6187 26.5413 33.6722 25.3478 33.9357 23.8869L32.9516 23.7094ZM14.8197 9.84316L15.7621 10.1776C15.9959 9.51871 16.5589 9.03129 17.2444 8.89419L17.0483 7.91361L16.8522 6.93303C15.4763 7.20819 14.3465 8.18644 13.8773 9.50875L14.8197 9.84316ZM36.1496 4.37487L35.4425 3.66776L26.9965 12.1138L27.7036 12.8209L28.4107 13.528L36.8568 5.08198L36.1496 4.37487ZM12.2192 19.8593L11.5121 20.5664L19.9581 29.0124L20.6652 28.3053L21.3723 27.5982L12.9263 19.1522L12.2192 19.8593ZM20.6652 31.1207L19.9581 30.4136L16.4389 33.9328L17.146 34.6399L17.8532 35.347L21.3723 31.8278L20.6652 31.1207ZM14.3307 34.6399L15.0378 33.9328L6.59176 25.4867L5.88465 26.1938L5.17755 26.9009L13.6236 35.347L14.3307 34.6399ZM5.88465 23.3785L6.59176 24.0856L10.1109 20.5664L9.40384 19.8593L8.69673 19.1522L5.17755 22.6714L5.88465 23.3785ZM5.88465 26.1938L6.59176 25.4867C6.20485 25.0998 6.20485 24.4725 6.59176 24.0856L5.88465 23.3785L5.17755 22.6714C4.00958 23.8393 4.00958 25.733 5.17755 26.9009L5.88465 26.1938ZM17.146 34.6399L16.4389 33.9328C16.052 34.3197 15.4247 34.3197 15.0378 33.9328L14.3307 34.6399L13.6236 35.347C14.7916 36.5149 16.6852 36.5149 17.8532 35.347L17.146 34.6399ZM20.6652 28.3053L19.9581 29.0124C20.345 29.3994 20.345 30.0267 19.9581 30.4136L20.6652 31.1207L21.3723 31.8278C22.5403 30.6598 22.5403 28.7662 21.3723 27.5982L20.6652 28.3053ZM12.2192 19.8593L12.9263 19.1522C11.7583 17.9842 9.86469 17.9842 8.69673 19.1522L9.40384 19.8593L10.1109 20.5664C10.4979 20.1795 11.1252 20.1795 11.5121 20.5664L12.2192 19.8593ZM26.9998 19.1555L26.2927 18.4483C25.1283 19.6127 23.2405 19.6127 22.0762 18.4483L21.3691 19.1555L20.662 19.8626C22.6074 21.808 25.7615 21.808 27.7069 19.8626L26.9998 19.1555ZM21.3691 19.1555L22.0762 18.4483C20.9118 17.284 20.9118 15.3962 22.0762 14.2319L21.3691 13.5248L20.662 12.8176C18.7166 14.763 18.7166 17.9172 20.662 19.8626L21.3691 19.1555ZM21.3691 13.5248L22.0762 14.2319C23.2405 13.0675 25.1283 13.0675 26.2927 14.2319L26.9998 13.5248L27.7069 12.8176C25.7615 10.8722 22.6074 10.8722 20.662 12.8176L21.3691 13.5248ZM26.9998 13.5248L26.2927 14.2319C27.457 15.3962 27.457 17.284 26.2927 18.4483L26.9998 19.1555L27.7069 19.8626C29.6523 17.9172 29.6523 14.763 27.7069 12.8176L26.9998 13.5248Z" fill="black"/>
</svg>
