<svg width="39" height="39" viewBox="0 0 39 39" fill="none" xmlns="http://www.w3.org/2000/svg">
<path d="M6.70313 14.8437C6.15084 14.8437 5.70313 15.2915 5.70313 15.8437C5.70313 16.396 6.15084 16.8437 6.70313 16.8437V15.8437V14.8437ZM32.2969 16.8437C32.8492 16.8437 33.2969 16.396 33.2969 15.8437C33.2969 15.2915 32.8492 14.8437 32.2969 14.8437V15.8437V16.8437ZM6.85665 23.0702C6.30437 23.0702 5.85665 23.5179 5.85665 24.0702C5.85665 24.6224 6.30437 25.0702 6.85665 25.0702V24.0702V23.0702ZM32.4504 25.0702C33.0027 25.0702 33.4504 24.6224 33.4504 24.0702C33.4504 23.5179 33.0027 23.0702 32.4504 23.0702V24.0702V25.0702ZM34.125 19.5H33.125C33.125 27.0249 27.0249 33.125 19.5 33.125V34.125V35.125C28.1294 35.125 35.125 28.1294 35.125 19.5H34.125ZM19.5 34.125V33.125C11.9751 33.125 5.875 27.0249 5.875 19.5H4.875H3.875C3.875 28.1294 10.8706 35.125 19.5 35.125V34.125ZM4.875 19.5H5.875C5.875 11.9751 11.9751 5.875 19.5 5.875V4.875V3.875C10.8706 3.875 3.875 10.8706 3.875 19.5H4.875ZM19.5 4.875V5.875C27.0249 5.875 33.125 11.9751 33.125 19.5H34.125H35.125C35.125 10.8706 28.1294 3.875 19.5 3.875V4.875ZM19.5 34.125V33.125C18.9474 33.125 18.3422 32.8732 17.7045 32.2567C17.062 31.6356 16.4377 30.6885 15.8918 29.4406C14.8012 26.9478 14.1016 23.434 14.1016 19.5H13.1016H12.1016C12.1016 23.6431 12.8343 27.4419 14.0595 30.2423C14.6714 31.641 15.4259 32.8357 16.3144 33.6946C17.2077 34.5583 18.2857 35.125 19.5 35.125V34.125ZM13.1016 19.5H14.1016C14.1016 15.566 14.8012 12.0522 15.8918 9.55938C16.4377 8.31148 17.062 7.3644 17.7045 6.74325C18.3422 6.12676 18.9474 5.875 19.5 5.875V4.875V3.875C18.2857 3.875 17.2077 4.44171 16.3144 5.30536C15.4259 6.16434 14.6714 7.35904 14.0595 8.75774C12.8343 11.5581 12.1016 15.3569 12.1016 19.5H13.1016ZM19.5 34.125V35.125C20.7143 35.125 21.7923 34.5583 22.6856 33.6946C23.5741 32.8357 24.3286 31.641 24.9405 30.2423C26.1657 27.4419 26.8984 23.6431 26.8984 19.5H25.8984H24.8984C24.8984 23.434 24.1988 26.9478 23.1082 29.4406C22.5623 30.6885 21.938 31.6356 21.2955 32.2567C20.6578 32.8732 20.0526 33.125 19.5 33.125V34.125ZM25.8984 19.5H26.8984C26.8984 15.3569 26.1657 11.5581 24.9405 8.75774C24.3286 7.35904 23.5741 6.16434 22.6856 5.30536C21.7923 4.44171 20.7143 3.875 19.5 3.875V4.875V5.875C20.0526 5.875 20.6578 6.12676 21.2955 6.74325C21.938 7.3644 22.5623 8.31148 23.1082 9.55938C24.1988 12.0522 24.8984 15.566 24.8984 19.5H25.8984ZM6.70313 15.8437V16.8437H32.2969V15.8437V14.8437H6.70313V15.8437ZM6.85665 24.0702V25.0702H32.4504V24.0702V23.0702H6.85665V24.0702Z" fill="black"/>
</svg>
