<svg width="24" height="38" viewBox="0 0 24 38" fill="none" xmlns="http://www.w3.org/2000/svg">
<g clip-path="url(#clip0_101_82)">
<path d="M23.5128 15.7631V8.7314C23.5128 3.36431 20.0037 0.439209 12.0201 0.439209C4.0365 0.439209 0.447006 3.36431 0.447006 8.7314V22.2369H0.487237V29.2686C0.487237 34.6357 3.99627 37.5608 11.9799 37.5608C19.9635 37.5608 23.553 34.6357 23.553 29.2686V15.7631H23.5128ZM11.9799 35.6107C5.83795 35.6107 3.62078 33.4455 3.62078 29.0578V15.7675H3.58055V8.951C3.58055 4.55895 5.87818 2.39806 12.0201 2.39806C18.162 2.39806 20.3792 4.56334 20.3792 8.951V22.2413H20.4194V29.0578C20.4194 33.4498 18.1218 35.6107 11.9799 35.6107Z" fill="#6FDD7A" stroke="#6FDD7A" stroke-width="2" stroke-miterlimit="10"/>
<path d="M13.7411 27.9642C13.2986 27.5645 12.6817 27.3888 11.962 27.4547C10.4422 27.5821 9.49898 28.6713 9.49898 30.3007C9.49898 31.122 9.76718 31.816 10.25 32.2552C10.6389 32.6066 11.1529 32.7866 11.7609 32.7866C11.8458 32.7866 11.9352 32.7866 12.0246 32.7778C13.5534 32.6461 14.5055 31.5569 14.5055 29.9406C14.5055 29.1061 14.2373 28.4078 13.7456 27.9686L13.7411 27.9642Z" fill="#6FDD7A"/>
</g>
<defs>
<clipPath id="clip0_101_82">
<rect width="24" height="38" fill="white"/>
</clipPath>
</defs>
</svg>
