<svg width="39" height="39" viewBox="0 0 39 39" fill="none" xmlns="http://www.w3.org/2000/svg">
<path d="M19.5004 9.7499V9.8039M9.80402 19.5003H9.75002M26.3948 12.6059L26.3567 12.6441M12.6444 26.3563L12.6063 26.3945M12.6444 12.6435L12.6063 12.6053M19.5 35.0999C10.8844 35.0999 3.90002 28.1155 3.90002 19.4999C3.90002 10.8843 10.8844 3.8999 19.5 3.8999C28.1157 3.8999 35.1 10.8843 35.1 19.4999C35.1 22.1228 32.6765 23.8679 30.0537 23.8679H29.0355C28.5097 23.8679 27.9912 23.9903 27.521 24.2254C25.8481 25.0618 25.1701 27.096 26.0065 28.7689C26.2416 29.2391 26.364 29.7576 26.364 30.2833V30.5907C26.364 32.3792 25.3604 34.0728 23.6356 34.5458C22.3185 34.907 20.9318 35.0999 19.5 35.0999Z" stroke="black" stroke-width="2" stroke-linecap="round" stroke-linejoin="round"/>
</svg>
