<svg width="39" height="39" viewBox="0 0 39 39" fill="none" xmlns="http://www.w3.org/2000/svg">
<path d="M11.7 9.94514V10.9451C12.0557 10.9451 12.3846 10.7562 12.5638 10.449L11.7 9.94514ZM14.43 5.26514V4.26514C14.0744 4.26514 13.7455 4.45405 13.5662 4.76127L14.43 5.26514ZM24.57 5.26514L25.4338 4.76127C25.2546 4.45405 24.9257 4.26514 24.57 4.26514V5.26514ZM27.3 9.94514L26.4362 10.449C26.6155 10.7562 26.9444 10.9451 27.3 10.9451V9.94514ZM3.90002 29.8351H4.90002V13.8451H3.90002H2.90002V29.8351H3.90002ZM7.80002 9.94514V10.9451H11.7V9.94514V8.94514H7.80002V9.94514ZM11.7 9.94514L12.5638 10.449L15.2938 5.76901L14.43 5.26514L13.5662 4.76127L10.8362 9.44127L11.7 9.94514ZM14.43 5.26514V6.26514H24.57V5.26514V4.26514H14.43V5.26514ZM24.57 5.26514L23.7062 5.76901L26.4362 10.449L27.3 9.94514L28.1638 9.44127L25.4338 4.76127L24.57 5.26514ZM27.3 9.94514V10.9451H31.2V9.94514V8.94514H27.3V9.94514ZM35.1 13.8451H34.1V29.8351H35.1H36.1V13.8451H35.1ZM35.1 29.8351H34.1C34.1 31.4368 32.8016 32.7351 31.2 32.7351V33.7351V34.7351C33.9062 34.7351 36.1 32.5413 36.1 29.8351H35.1ZM31.2 9.94514V10.9451C32.8016 10.9451 34.1 12.2435 34.1 13.8451H35.1H36.1C36.1 11.1389 33.9062 8.94514 31.2 8.94514V9.94514ZM3.90002 13.8451H4.90002C4.90002 12.2435 6.1984 10.9451 7.80002 10.9451V9.94514V8.94514C5.09383 8.94514 2.90002 11.1389 2.90002 13.8451H3.90002ZM7.80002 33.7351V32.7351C6.1984 32.7351 4.90002 31.4368 4.90002 29.8351H3.90002H2.90002C2.90002 32.5413 5.09383 34.7351 7.80002 34.7351V33.7351ZM25.35 20.8651H24.35C24.35 23.5437 22.1786 25.7151 19.5 25.7151V26.7151V27.7151C23.2832 27.7151 26.35 24.6483 26.35 20.8651H25.35ZM19.5 26.7151V25.7151C16.8214 25.7151 14.65 23.5437 14.65 20.8651H13.65H12.65C12.65 24.6483 15.7169 27.7151 19.5 27.7151V26.7151ZM13.65 20.8651H14.65C14.65 18.1866 16.8214 16.0151 19.5 16.0151V15.0151V14.0151C15.7169 14.0151 12.65 17.082 12.65 20.8651H13.65ZM19.5 15.0151V16.0151C22.1786 16.0151 24.35 18.1866 24.35 20.8651H25.35H26.35C26.35 17.082 23.2832 14.0151 19.5 14.0151V15.0151ZM31.2 33.7351V32.7351H7.80002V33.7351V34.7351H31.2V33.7351Z" fill="black"/>
</svg>
